<svg width="160" height="38" viewBox="0 0 160 38" fill="none" xmlns="http://www.w3.org/2000/svg">
<path d="M136.851 36.6707C136.851 33.4144 136.851 30.1772 136.851 26.9209C136.851 19.1005 136.851 11.2801 136.851 3.45991V2.05076C141.312 2.22208 145.696 1.59364 149.961 2.86958C151.962 3.40809 153.723 4.57671 154.969 6.19255C156.216 7.80839 156.877 9.78059 156.849 11.8006C157.007 13.9038 156.443 15.9984 155.246 17.7561C154.05 19.5137 152.287 20.8351 150.235 21.5126L149.022 21.9316L155.265 30.3295C156.849 32.4623 158.414 34.6141 160 36.766H153.386C153.398 36.6968 153.398 36.6258 153.386 36.5566C150.157 32.0433 146.928 27.5302 143.602 23.0551C143.407 22.7695 142.897 22.6933 142.349 22.4457V36.766L136.851 36.6707ZM142.448 6.69722V17.9134C144.555 18.1033 146.677 17.7895 148.63 16.9995C149.573 16.5642 150.363 15.869 150.904 15.0002C151.443 14.1313 151.708 13.1273 151.668 12.1128C151.626 11.0984 151.279 10.1182 150.669 9.2942C150.06 8.4702 149.214 7.83856 148.24 7.47793C146.399 6.77374 144.414 6.50608 142.448 6.69722Z" fill="#637388"/>
<path d="M20.4255 36.6705C20.4497 36.3847 20.5073 36.1028 20.5965 35.8306L37.1056 0.725464C37.2025 0.515373 37.3553 0.305434 37.5262 0L43.2591 12.7897L53.4816 35.5824C53.6102 35.9372 53.7131 36.3009 53.7872 36.6705H48.1692C47.0422 34.0934 45.9531 31.4973 44.7884 28.9202C44.6886 28.7793 44.5599 28.6607 44.4117 28.5719C44.2635 28.4832 44.0987 28.4263 43.9277 28.4048C39.4185 28.4048 34.9092 28.4048 30.4 28.4048C30.2396 28.415 30.0839 28.4616 29.9447 28.5411C29.8056 28.6204 29.6861 28.7305 29.5968 28.863C28.3928 31.4782 27.228 34.1316 26.0617 36.766L20.4255 36.6705ZM42.418 23.3081L37.2781 11.6062L31.9474 23.3081H42.418Z" fill="#637388"/>
<path d="M83.7447 36.7277C83.7447 34.469 83.7447 32.2103 83.7447 29.9323C83.7447 21.0889 83.7447 12.2516 83.7447 3.42092V2.0426H103.45V6.94303H89.3607V15.7291H103.154V20.7826H89.3607V31.7508H103.489V36.766L83.7447 36.7277Z" fill="#637388"/>
<path d="M110.298 36.7277C110.298 34.469 110.298 32.2103 110.298 29.9323C110.298 21.0889 110.298 12.2516 110.298 3.42092V2.0426H130.003V6.94303H115.914V15.7291H129.709V20.7826H115.914V31.7508H130.043V36.766L110.298 36.7277Z" fill="#637388"/>
<path d="M0 2.07118C3.70553 2.07118 7.43086 1.91825 11.0969 2.31995C13.5302 2.56168 15.7797 3.71949 17.3862 5.55717C18.9913 7.39484 19.8318 9.77369 19.7375 12.2081C19.8226 14.6387 19.0003 17.0143 17.4287 18.8759C15.8571 20.7376 13.6503 21.9531 11.2321 22.2876C9.31249 22.6128 7.39127 22.6128 5.47162 22.7657V36.766H0V2.07118ZM5.47162 17.6973C7.58429 17.9587 9.73046 17.7161 11.7307 16.9897C12.6654 16.5829 13.4481 15.8923 13.9649 15.0164C14.4816 14.1404 14.7081 13.124 14.6108 12.1124C14.6701 11.1014 14.3996 10.0985 13.8387 9.2538C13.2779 8.4089 12.4572 7.76792 11.5012 7.42653C9.55263 6.82459 7.49918 6.62925 5.47162 6.85276V17.6973Z" fill="#637388"/>
<path d="M63.2962 36.766C63.2962 32.1508 63.2962 27.5356 63.2962 22.9205C63.2777 22.185 63.0772 21.4648 62.7117 20.8226C59.3223 14.9868 55.8743 9.18909 52.4463 3.3724C52.232 3.01002 52.0361 2.64778 51.7447 2.11381C53.6923 2.11381 55.6399 2.11381 57.4904 2.11381C57.7834 2.11381 58.1334 2.51421 58.3092 2.81936C60.7056 6.82425 63.0618 10.8484 65.4381 14.8724L66.0611 15.8832L68.166 12.3359C70.0165 9.20817 71.8669 6.09963 73.6587 2.95293C73.7944 2.64992 74.0289 2.39851 74.3234 2.23685C74.6195 2.0752 74.9603 2.01185 75.2949 2.05657C76.911 2.05657 78.5486 2.05657 80.3404 2.05657C80.0675 2.55238 79.8917 2.89568 79.6974 3.21991C76.217 9.132 72.7366 15.0377 69.2562 20.9369C69.0018 21.3204 68.8476 21.7593 68.8091 22.2148C68.8091 27.0398 68.8091 31.8648 68.8091 36.7089L63.2962 36.766Z" fill="#637388"/>
</svg>