<svg xmlns="http://www.w3.org/2000/svg" width="377.4" height="132.68" viewBox="0 0 377.4 132.68">
  <defs>
    <style>
      .cls-1 {
        fill: #637388;
      }
    </style>
  </defs>
  <title>alfabank_black</title>
  <g id="Layer_2" data-name="Layer 2">
    <g id="Layer_1-2" data-name="Layer 1">
      <g id="Layer_2-2" data-name="Layer 2">
        <g id="Layer_1-2-2" data-name="Layer 1-2">
          <path class="cls-1" d="M42.59,0c9,0,11.87,6.47,14.25,12.94,1,2.74,24.47,67,25.17,68.93a1.35,1.35,0,0,1-.76,1.74l-13.7,5.31a1.32,1.32,0,0,1-1.68-.79c-.25-.67-5.3-14.68-5.87-16.24H25.23L19.32,88.13a1.3,1.3,0,0,1-1.66.8h0L4,83.61a1.36,1.36,0,0,1-.77-1.74c.86-2.41,24-65.64,25.15-68.93C30.62,6.57,33.56,0,42.59,0ZM1.32,115A1.34,1.34,0,0,0,0,116.33v15a1.33,1.33,0,0,0,1.31,1.35H83.87a1.32,1.32,0,0,0,1.31-1.33v-15A1.33,1.33,0,0,0,83.87,115H1.32m41.2-94L30.77,56.28h23.7L42.67,21Zm176.4,57.86a11.85,11.85,0,0,1-4.24.74c-2.81,0-4.37-1.11-4.37-4s2-4,5.88-4a8.38,8.38,0,0,1,2.32.29V74A19,19,0,0,0,218.92,78.86Zm10,3.45a13.58,13.58,0,0,1-2.61-9v-8c0-4.35-.5-5.91-1.66-7.5-1.59-2.24-4.25-3.21-9.16-3.21a40.85,40.85,0,0,0-10.08,1.2l1.16,5.74a50.33,50.33,0,0,1,6.15-.58c5.21,0,5.81.76,5.81,4.66V67a15.19,15.19,0,0,0-4-.53c-7.83,0-12,3.83-12,10.17,0,5.95,4.41,9.19,9.8,9.19a13.58,13.58,0,0,0,8.52-2.59,8.06,8.06,0,0,0,3,2.52Zm77.48-3.45a11.87,11.87,0,0,1-4.24.74c-2.81,0-4.41-1.11-4.41-4s2-4,5.91-4a8.22,8.22,0,0,1,2.31.29V74a18.58,18.58,0,0,0,.41,4.86Zm10,3.45c-2.08-3.16-2.62-5-2.62-9v-8c0-4.35-.5-5.91-1.66-7.5-1.59-2.24-4.25-3.21-9.16-3.21a41,41,0,0,0-10.11,1.2L294,61.48a50.3,50.3,0,0,1,6.19-.58c5.19,0,5.79.76,5.79,4.66V67a15.06,15.06,0,0,0-4-.53c-7.86,0-12,3.83-12,10.17,0,5.95,4.42,9.19,9.84,9.19a16,16,0,0,0,5.77-1,15.47,15.47,0,0,0,2.74-1.54,8.18,8.18,0,0,0,3,2.52Zm61,2.87S373.07,76,372,73.95c-1.19-2.35-2.28-4-4.7-4.54v-.14c1.62-.31,2.91-1.29,4.3-4.28s1.75-3.55,2.53-4.24A2.17,2.17,0,0,1,376,60.3l.4-5.41a19.82,19.82,0,0,0-3.66-.08,5.8,5.8,0,0,0-4.28,1.79A13,13,0,0,0,366.4,60c-.74,1.51-1.32,2.73-2.07,4.27s-1.12,2.28-3.16,2.28h-1.32V42.67H352V85.18h7.86V73h1.07c2.25,0,2.64.56,3.83,2.93,1.4,2.83,4,9.32,4,9.32Zm-220.91,0h9.05L151.81,43.39a16.36,16.36,0,0,0-5.13-.79,11.76,11.76,0,0,0-4.45.79L127.76,85.18h8.68S137.61,81.51,139,77h15l2.45,8.18ZM141.2,70s2.5-8.38,2.88-9.69c1-3.37,2.52-8.75,2.52-8.75h.25s1.39,5.57,2.31,8.7L151.91,70Zm101.07-4.77a3.54,3.54,0,1,0,.05,0h-.05Zm-66-22.51h-7.86V85.18h7.86ZM332.46,61.29c4.34.1,4.87,1,4.87,4.64V85.18h7.79V65.26c0-4.35-.5-5.91-1.66-7.5-1.59-2.24-4.74-3.21-10-3.21a40.61,40.61,0,0,0-12.91,1.84v28.8h7.87V61.66A21.44,21.44,0,0,1,332.46,61.29ZM195.69,41.92c-4.9,0-7.57,1-9.16,3.21-1.15,1.59-1.66,3.19-1.66,7.55v3.71H181v6.35h3.91V85.18h7.79V62.74h7.78V56.38H192.7V53c0-3.9.6-4.65,5.81-4.65a15.59,15.59,0,0,1,1.87.08l1.23-6.1A43.83,43.83,0,0,0,195.69,41.92Zm62.56.39c2.67-.16,8.65-.38,12.41-.38h2.09c7.39,0,11.61,5.38,11.61,11.68,0,4.29-2,7.13-6.56,8.83,5.42,1.2,8.26,5.43,8.26,10.6,0,3.79-1.08,6.8-3,8.86h0c-2.54,2.51-6.39,3.92-11.52,3.91-4.58,0-10.31-.14-13.23-.31Zm12.41,7c-1.32,0-2.91,0-4.51.08V59.56h4.52a5.84,5.84,0,0,0,4.2-1.46,5,5,0,0,0,1.41-3.7c0-3.26-1.76-5.11-5-5.13Zm.15,29.25h.36c4.06,0,6.59-2.18,6.61-6.56a5.87,5.87,0,0,0-1.72-4.08,6.66,6.66,0,0,0-4.83-1.81h-5.1v12.4l4.68,0Z"/>
        </g>
      </g>
    </g>
  </g>
</svg>