<svg width="89" height="25" viewBox="0 0 89 25" fill="none" xmlns="http://www.w3.org/2000/svg">
<g clip-path="url(#clip0)">
<path d="M39.7904 14.4399V11.5747C39.7904 10.4935 39.1047 9.76579 38.0012 9.75624C37.3611 9.71462 36.7492 10.0264 36.4039 10.57C36.0891 10.0424 35.5127 9.73017 34.9015 9.75624C34.3699 9.73042 33.8643 9.989 33.572 10.4362V9.8632H32.5824V14.4399H33.5815V11.9051C33.5815 11.1105 34.0183 10.6903 34.6945 10.6903C35.3706 10.6903 35.684 11.1201 35.684 11.8956V14.4399H36.6774V11.9051C36.6774 11.1105 37.1332 10.6903 37.7904 10.6903C38.4476 10.6903 38.7894 11.1201 38.7894 11.8956V14.4399H39.7904V14.4399ZM54.573 9.86702H52.9567V8.48027H51.9576V9.86702H51.0345V10.7762H51.9576V12.8602C51.9576 13.9222 52.3659 14.5545 53.536 14.5545C53.9729 14.5559 54.4015 14.4334 54.7724 14.2011L54.4875 13.3492C54.222 13.5082 53.9208 13.5969 53.6119 13.6071C53.1181 13.6071 52.9548 13.3014 52.9548 12.843V10.7762H54.5711L54.573 9.86702ZM63.0118 9.75241C62.5203 9.73801 62.0603 9.9953 61.8133 10.4229V9.86702H60.8332V14.4399H61.8228V11.8765C61.8228 11.1124 62.1457 10.6998 62.7934 10.6998C63.0052 10.6968 63.2156 10.7357 63.4125 10.8144L63.7164 9.87657C63.4903 9.79523 63.252 9.75324 63.0118 9.75241ZM50.2539 10.2299C49.6936 9.8952 49.0495 9.72945 48.3982 9.75241C47.2472 9.75241 46.4989 10.3083 46.4989 11.2156C46.4989 11.9624 47.0497 12.4209 48.0678 12.5641L48.5331 12.631C49.0744 12.7074 49.3327 12.8506 49.3327 13.1085C49.3327 13.4619 48.9718 13.6644 48.2957 13.6644C47.7502 13.6818 47.2148 13.5135 46.7762 13.1868L46.3261 13.9604C46.9023 14.3656 47.5928 14.5739 48.2957 14.5545C49.6081 14.5545 50.3697 13.9318 50.3697 13.0627C50.3697 12.2585 49.7696 11.8383 48.7819 11.695L48.3166 11.6282C47.8892 11.5709 47.5454 11.4849 47.5454 11.1793C47.5454 10.845 47.8683 10.6444 48.4115 10.6444C48.9092 10.6518 49.3969 10.7866 49.8285 11.036L50.2539 10.2299ZM76.7535 9.75241C76.262 9.73801 75.8021 9.9953 75.5551 10.4229V9.86702H74.575V14.4399H75.5645V11.8765C75.5645 11.1124 75.8874 10.6998 76.5351 10.6998C76.747 10.6968 76.9574 10.7357 77.1543 10.8144L77.4582 9.87657C77.232 9.79523 76.9937 9.75324 76.7535 9.75241ZM64.0108 12.1534C64.0108 13.5402 64.9719 14.5545 66.4363 14.5545C67.0301 14.584 67.6134 14.3892 68.0716 14.0082L67.5968 13.204C67.2547 13.466 66.8377 13.61 66.4078 13.6147C65.6177 13.6147 65.0384 13.0302 65.0384 12.1515C65.0384 11.2729 65.6196 10.6979 66.4078 10.6884C66.8377 10.6931 67.2547 10.8371 67.5968 11.0991L68.0716 10.2949C67.6134 9.91391 67.0301 9.71905 66.4363 9.7486C64.9719 9.7486 64.0108 10.7629 64.0108 12.1496V12.1534ZM73.2758 12.1534V9.86129H72.2863V10.4171C71.9439 9.97287 71.4088 9.72299 70.8504 9.74668C69.5759 9.74668 68.5711 10.7514 68.5711 12.1477C68.5711 13.544 69.5702 14.5487 70.8504 14.5487C71.4088 14.5724 71.9439 14.3226 72.2863 13.8783V14.4322H73.2758V12.1534ZM69.5949 12.1534C69.5949 11.3493 70.1172 10.6903 70.9738 10.6903C71.7924 10.6903 72.3432 11.3225 72.3432 12.1534C72.3432 12.9844 71.7924 13.6166 70.9738 13.6166C70.1172 13.6166 69.5949 12.9557 69.5949 12.1534ZM57.6556 9.75241C56.3261 9.75241 55.3916 10.7285 55.3916 12.1534C55.3916 13.6071 56.3622 14.5545 57.7221 14.5545C58.4011 14.5784 59.0651 14.3499 59.5873 13.9127L59.1029 13.1754C58.7252 13.4793 58.2571 13.6474 57.7734 13.6529C57.1352 13.6529 56.5559 13.3568 56.4135 12.5336H59.7905C59.8 12.4094 59.8095 12.2852 59.8095 12.1515C59.8095 10.7266 58.9244 9.75051 57.6499 9.75051L57.6556 9.75241ZM57.6366 10.6425C58.2748 10.6425 58.6832 11.0437 58.7877 11.7523H56.4306C56.535 11.0914 56.9339 10.6425 57.6385 10.6425H57.6366ZM82.4516 12.1534V8.02948H81.462V10.421C81.1197 9.97669 80.5845 9.72681 80.0261 9.75051C78.7516 9.75051 77.7469 10.7552 77.7469 12.1515C77.7469 13.5478 78.7459 14.5526 80.0261 14.5526C80.5845 14.5763 81.1197 14.3264 81.462 13.8821V14.436H82.4516V12.1534ZM83.6082 14.0177C83.6474 14.0176 83.6861 14.0254 83.7222 14.0407C83.7569 14.0556 83.7885 14.0769 83.8153 14.1037C83.8418 14.1299 83.8631 14.1611 83.8779 14.1954C83.9088 14.2673 83.9088 14.3488 83.8779 14.4208C83.863 14.4551 83.8418 14.4862 83.8153 14.5125C83.7884 14.5391 83.7568 14.5605 83.7222 14.5755C83.6862 14.5909 83.6474 14.5987 83.6082 14.5984C83.4898 14.5999 83.3821 14.5299 83.3347 14.4208C83.3041 14.3488 83.3041 14.2674 83.3347 14.1954C83.3644 14.1252 83.4204 14.0697 83.4905 14.0407C83.529 14.0246 83.5704 14.0167 83.612 14.0177H83.6082V14.0177ZM83.6082 14.5335C83.6382 14.5339 83.668 14.5281 83.6956 14.5163C83.7218 14.5049 83.7456 14.4887 83.7659 14.4685C83.8538 14.3798 83.8538 14.2363 83.7659 14.1476C83.7457 14.1273 83.7219 14.1111 83.6956 14.0999C83.668 14.0882 83.6382 14.0823 83.6082 14.0827C83.5776 14.0823 83.5473 14.0881 83.519 14.0999C83.4042 14.1492 83.3509 14.2827 83.3999 14.3982C83.411 14.4244 83.4269 14.4482 83.4468 14.4685C83.4676 14.489 83.4921 14.5052 83.519 14.5163C83.5484 14.5286 83.5802 14.5345 83.612 14.5335H83.6082ZM83.6253 14.1705C83.6538 14.1685 83.682 14.1766 83.7051 14.1935C83.7241 14.2087 83.7347 14.2321 83.7336 14.2565C83.7343 14.2774 83.726 14.2976 83.7108 14.3119C83.6934 14.3275 83.6714 14.3369 83.6481 14.3386L83.7355 14.4399H83.6671L83.5855 14.3386H83.5589V14.4399H83.5019V14.1725L83.6253 14.1705ZM83.5588 14.2202V14.2928H83.6253C83.6371 14.2962 83.6496 14.2962 83.6614 14.2928C83.6702 14.2868 83.6752 14.2767 83.6747 14.266C83.6752 14.2554 83.6702 14.2453 83.6614 14.2393C83.6496 14.2359 83.6371 14.2359 83.6253 14.2393L83.5588 14.2202ZM78.7744 12.1534C78.7744 11.3493 79.2967 10.6903 80.1533 10.6903C80.972 10.6903 81.5228 11.3225 81.5228 12.1534C81.5228 12.9844 80.972 13.6166 80.1533 13.6166C79.2967 13.6166 78.7744 12.9557 78.7744 12.1534ZM45.365 12.1534V9.86129H44.3754V10.4171C44.0331 9.97671 43.5006 9.72924 42.9452 9.75241C41.6708 9.75241 40.666 10.7571 40.666 12.1534C40.666 13.5497 41.665 14.5545 42.9452 14.5545C43.5036 14.5782 44.0388 14.3283 44.3811 13.884V14.438H45.3707L45.365 12.1534ZM41.6841 12.1534C41.6841 11.3493 42.2064 10.6903 43.063 10.6903C43.8816 10.6903 44.4324 11.3225 44.4324 12.1534C44.4324 12.9844 43.8816 13.6166 43.063 13.6166C42.2064 13.6166 41.6841 12.9576 41.6841 12.1534Z" fill="#231F20"/>
<path d="M19.9556 6.71722H13.9727V17.5305H19.9556V6.71722Z" fill="#FF5F00"/>
<path d="M14.3525 12.126C14.3509 10.0163 15.3139 8.02297 16.9641 6.72038C13.995 4.37371 9.69639 4.89198 7.36295 7.87797C5.02954 10.864 5.54489 15.1869 8.51402 17.5336C10.9937 19.4934 14.4845 19.4934 16.9641 17.5336C15.3133 16.2306 14.3503 14.2364 14.3525 12.126Z" fill="#EB001B"/>
<path d="M28.0276 12.1267C28.0276 15.9244 24.9662 19.0031 21.1898 19.003C19.6571 19.0029 18.1689 18.485 16.964 17.5323C19.9331 15.1857 20.4485 10.8627 18.115 7.87669C17.7786 7.44611 17.3921 7.05749 16.964 6.7191C19.9327 4.37187 24.2313 4.88933 26.5653 7.87489C27.513 9.08716 28.028 10.5846 28.0276 12.1267Z" fill="#F79E1B"/>
<path d="M27.3707 16.3843V16.1628H27.46V16.1188H27.2377V16.1647H27.327V16.3862L27.3707 16.3843ZM27.8095 16.3843V16.1169H27.7506L27.6708 16.3079L27.591 16.1169H27.5207V16.3843H27.5606V16.1838L27.6347 16.3576H27.686L27.7601 16.1838V16.3862L27.8095 16.3843Z" fill="#F79E1B"/>
</g>
<defs>
<clipPath id="clip0">
<rect width="88" height="24.0025" fill="white" transform="translate(0.901123)"/>
</clipPath>
</defs>
</svg>